<?xml version="1.0" encoding="utf-8"?>
<svg id="a" xmlns="http://www.w3.org/2000/svg" viewBox="0 0 270 150">
<g>
	<path style="fill: #ffffff;" d="M262.5,25H7.5C3.4,25,0,28.4,0,32.5v85c0,4.1,3.4,7.5,7.5,7.5h255c4.1,0,7.5-3.4,7.5-7.5v-85
		C270,28.4,266.6,25,262.5,25z M267,117.5c0,2.5-2,4.5-4.5,4.5H7.5C5,122,3,120,3,117.5v-85C3,30,5,28,7.5,28h255
		c2.5,0,4.5,2,4.5,4.5V117.5z"/>
	<path style="fill: var(--svgclr);" d="M267,117.5c0,2.5-2,4.5-4.5,4.5H7.5C5,122,3,120,3,117.5v-85C3,30,5,28,7.5,28h255c2.5,0,4.5,2,4.5,4.5V117.5z"/>
	<g>
		<path style="fill: var(--svgtext);" d="M23.7,108.8V93h-5.1v-3.2h13.6V93h-5.1v15.8H23.7z"/>
		<path style="fill: var(--svgtext);" d="M37.7,89.8v7c1.1-1.4,2.3-2.1,3.8-2.1c0.8,0,1.4,0.2,2,0.5s1.1,0.7,1.4,1.2c0.3,0.5,0.5,1,0.6,1.6
			c0.1,0.6,0.2,1.5,0.2,2.7v8.1h-3.3v-7.3c0-1.4-0.1-2.4-0.2-2.7c-0.1-0.4-0.3-0.7-0.7-0.9c-0.3-0.2-0.7-0.3-1.2-0.3
			c-0.5,0-1,0.1-1.5,0.4c-0.4,0.3-0.7,0.7-0.9,1.3c-0.2,0.6-0.3,1.5-0.3,2.6v6.9h-3.3v-19H37.7z"/>
		<path style="fill: var(--svgtext);" d="M56.2,104.4l3.3,0.6c-0.4,1.3-1.1,2.3-2,3c-0.9,0.7-2,1-3.4,1c-2.2,0-3.7-0.8-4.8-2.3c-0.8-1.3-1.2-2.8-1.2-4.7
			c0-2.3,0.5-4.1,1.6-5.4c1.1-1.3,2.4-1.9,4.1-1.9c1.8,0,3.3,0.7,4.4,2c1.1,1.4,1.6,3.4,1.5,6.2h-8.2c0,1.1,0.3,1.9,0.8,2.5
			c0.5,0.6,1.1,0.9,1.9,0.9c0.5,0,0.9-0.2,1.3-0.5C55.7,105.6,56,105.1,56.2,104.4z M56.4,100.7c0-1.1-0.3-1.9-0.7-2.4
			s-1-0.8-1.7-0.8c-0.7,0-1.3,0.3-1.8,0.9s-0.7,1.4-0.7,2.4H56.4z"/>
		<path style="fill: var(--svgtext);" d="M71.3,108.8l-4.1-19h3.5l2.6,13l3.1-13h4.1l3,13.2l2.6-13.2h3.5l-4.1,19h-3.7l-3.4-14.2l-3.4,14.2H71.3z"/>
		<path style="fill: var(--svgtext);" d="M98.1,104.4l3.3,0.6c-0.4,1.3-1.1,2.3-2,3c-0.9,0.7-2,1-3.4,1c-2.2,0-3.7-0.8-4.8-2.3c-0.8-1.3-1.2-2.8-1.2-4.7
			c0-2.3,0.5-4.1,1.6-5.4c1.1-1.3,2.4-1.9,4.1-1.9c1.8,0,3.3,0.7,4.4,2c1.1,1.4,1.6,3.4,1.5,6.2h-8.2c0,1.1,0.3,1.9,0.8,2.5
			c0.5,0.6,1.1,0.9,1.9,0.9c0.5,0,0.9-0.2,1.3-0.5C97.7,105.6,98,105.1,98.1,104.4z M98.3,100.7c0-1.1-0.3-1.9-0.7-2.4
			s-1-0.8-1.7-0.8c-0.7,0-1.3,0.3-1.8,0.9s-0.7,1.4-0.7,2.4H98.3z"/>
		<path style="fill: var(--svgtext);" d="M103.1,104.8l3.3-0.6c0.1,0.7,0.4,1.2,0.9,1.6c0.4,0.4,1,0.5,1.8,0.5c0.8,0,1.5-0.2,1.9-0.5c0.3-0.2,0.4-0.6,0.4-1
			c0-0.3-0.1-0.5-0.2-0.7c-0.2-0.2-0.5-0.3-1.1-0.5c-2.6-0.6-4.3-1.2-5-1.8c-1-0.7-1.5-1.8-1.5-3.1c0-1.2,0.4-2.2,1.3-3
			c0.8-0.8,2.2-1.2,3.9-1.2c1.7,0,3,0.3,3.8,0.9c0.8,0.6,1.4,1.5,1.7,2.7l-3.1,0.6c-0.1-0.5-0.4-0.9-0.8-1.2
			c-0.4-0.3-0.9-0.4-1.6-0.4c-0.9,0-1.5,0.1-1.9,0.4c-0.2,0.2-0.4,0.4-0.4,0.7c0,0.3,0.1,0.5,0.3,0.7c0.3,0.2,1.3,0.6,3.1,1
			c1.7,0.4,3,1,3.7,1.6c0.7,0.6,1,1.5,1,2.7c0,1.3-0.5,2.3-1.4,3.2c-0.9,0.9-2.3,1.4-4.2,1.4c-1.7,0-3-0.4-4-1.1
			C104,107.2,103.4,106.1,103.1,104.8z"/>
		<path style="fill: var(--svgtext);" d="M123.2,95v2.9h-2.2v5.5c0,1.1,0,1.8,0.1,2c0,0.2,0.1,0.3,0.3,0.5c0.2,0.1,0.3,0.2,0.6,0.2c0.3,0,0.7-0.1,1.3-0.3l0.3,2.8
			c-0.8,0.4-1.6,0.5-2.6,0.5c-0.6,0-1.1-0.1-1.6-0.3s-0.8-0.5-1-0.9c-0.2-0.3-0.4-0.8-0.5-1.4c-0.1-0.4-0.1-1.3-0.1-2.6v-6h-1.5V95
			h1.5v-2.7l3.3-2.1V95H123.2z"/>
		<path style="fill: var(--svgtext);" d="M143,101.8l3.3,1.2c-0.5,2.1-1.4,3.6-2.6,4.6c-1.2,1-2.7,1.5-4.5,1.5c-2.3,0-4.1-0.9-5.6-2.6s-2.2-4.1-2.2-7.1
			c0-3.2,0.7-5.6,2.2-7.4c1.5-1.7,3.4-2.6,5.8-2.6c2.1,0,3.8,0.7,5.1,2.1c0.8,0.8,1.4,2,1.7,3.5l-3.4,0.9c-0.2-1-0.6-1.8-1.3-2.3
			s-1.4-0.9-2.3-0.9c-1.3,0-2.3,0.5-3.1,1.5c-0.8,1-1.2,2.6-1.2,4.9c0,2.4,0.4,4.1,1.2,5.1c0.8,1,1.8,1.5,3,1.5c0.9,0,1.7-0.3,2.4-1
			C142.3,104.2,142.7,103.2,143,101.8z"/>
		<path style="fill: var(--svgtext);" d="M148.5,101.7c0-1.2,0.3-2.4,0.8-3.5c0.5-1.1,1.3-2,2.3-2.6c1-0.6,2.1-0.9,3.3-0.9c1.9,0,3.4,0.7,4.6,2
			c1.2,1.4,1.8,3.1,1.8,5.1c0,2.1-0.6,3.8-1.8,5.2s-2.7,2.1-4.6,2.1c-1.1,0-2.2-0.3-3.2-0.9c-1-0.6-1.8-1.4-2.3-2.5
			C148.8,104.6,148.5,103.3,148.5,101.7z M151.9,101.9c0,1.4,0.3,2.4,0.9,3.1c0.6,0.7,1.3,1.1,2.2,1.1c0.9,0,1.6-0.4,2.1-1.1
			s0.9-1.8,0.9-3.2c0-1.3-0.3-2.4-0.9-3.1s-1.3-1.1-2.1-1.1c-0.9,0-1.6,0.4-2.2,1.1C152.2,99.5,151.9,100.5,151.9,101.9z"/>
		<path style="fill: var(--svgtext);" d="M166.3,99.2l-3-0.6c0.3-1.3,0.9-2.3,1.7-3s2-1,3.6-1c1.5,0,2.5,0.2,3.3,0.6c0.7,0.4,1.2,0.9,1.5,1.5
			c0.3,0.6,0.4,1.7,0.4,3.3l0,4.2c0,1.2,0.1,2.1,0.2,2.7c0.1,0.6,0.3,1.2,0.6,1.8h-3.2c-0.1-0.2-0.2-0.6-0.3-1.1
			c-0.1-0.2-0.1-0.4-0.1-0.4c-0.6,0.6-1.2,1.1-1.8,1.4s-1.3,0.5-2,0.5c-1.3,0-2.3-0.4-3-1.2c-0.7-0.8-1.1-1.7-1.1-2.9
			c0-0.8,0.2-1.5,0.5-2.1s0.8-1.1,1.4-1.4s1.5-0.6,2.6-0.8c1.5-0.3,2.6-0.6,3.2-0.9v-0.4c0-0.7-0.2-1.2-0.5-1.5
			c-0.3-0.3-0.9-0.4-1.8-0.4c-0.6,0-1,0.1-1.4,0.4C166.8,98.1,166.5,98.6,166.3,99.2z M170.7,102.2c-0.4,0.2-1.1,0.3-2,0.6
			c-0.9,0.2-1.5,0.4-1.8,0.6c-0.4,0.3-0.6,0.8-0.6,1.3c0,0.5,0.2,0.9,0.5,1.3s0.8,0.6,1.3,0.6c0.6,0,1.2-0.2,1.7-0.6
			c0.4-0.3,0.7-0.7,0.8-1.2c0.1-0.3,0.1-0.9,0.1-1.8V102.2z"/>
		<path style="fill: var(--svgtext);" d="M176,104.8l3.3-0.6c0.1,0.7,0.4,1.2,0.9,1.6c0.4,0.4,1,0.5,1.8,0.5c0.8,0,1.5-0.2,1.9-0.5c0.3-0.2,0.4-0.6,0.4-1
			c0-0.3-0.1-0.5-0.2-0.7c-0.2-0.2-0.5-0.3-1.1-0.5c-2.6-0.6-4.3-1.2-5-1.8c-1-0.7-1.5-1.8-1.5-3.1c0-1.2,0.4-2.2,1.3-3
			c0.8-0.8,2.2-1.2,3.9-1.2c1.7,0,3,0.3,3.8,0.9c0.8,0.6,1.4,1.5,1.7,2.7L184,99c-0.1-0.5-0.4-0.9-0.8-1.2c-0.4-0.3-0.9-0.4-1.6-0.4
			c-0.9,0-1.5,0.1-1.9,0.4c-0.2,0.2-0.4,0.4-0.4,0.7c0,0.3,0.1,0.5,0.3,0.7c0.3,0.2,1.3,0.6,3.1,1c1.7,0.4,3,1,3.7,1.6
			c0.7,0.6,1,1.5,1,2.7c0,1.3-0.5,2.3-1.4,3.2c-0.9,0.9-2.3,1.4-4.2,1.4c-1.7,0-3-0.4-4-1.1S176.3,106.1,176,104.8z"/>
		<path style="fill: var(--svgtext);" d="M196.1,95v2.9h-2.2v5.5c0,1.1,0,1.8,0.1,2c0,0.2,0.1,0.3,0.3,0.5c0.2,0.1,0.3,0.2,0.6,0.2c0.3,0,0.7-0.1,1.3-0.3l0.3,2.8
			c-0.8,0.4-1.6,0.5-2.6,0.5c-0.6,0-1.1-0.1-1.6-0.3c-0.5-0.2-0.8-0.5-1-0.9c-0.2-0.3-0.4-0.8-0.5-1.4c-0.1-0.4-0.1-1.3-0.1-2.6v-6
			H189V95h1.5v-2.7l3.3-2.1V95H196.1z"/>
		<path style="fill: var(--svgtext);" d="M205.1,108.8V89.9h3.4v15.6h8.6v3.2H205.1z"/>
		<path style="fill: var(--svgtext);" d="M219.5,93.1v-3.4h3.3v3.4H219.5z M219.5,108.8V95h3.3v13.7H219.5z"/>
		<path style="fill: var(--svgtext);" d="M237.4,108.8h-3.3v-7c0-1.5-0.1-2.4-0.2-2.9c-0.1-0.4-0.4-0.8-0.7-1c-0.3-0.2-0.7-0.4-1.1-0.4c-0.6,0-1.1,0.2-1.5,0.5
			c-0.5,0.3-0.8,0.8-0.9,1.4s-0.2,1.6-0.2,3.2v6.2h-3.3V95h3v2c1.1-1.6,2.4-2.3,4.1-2.3c0.7,0,1.4,0.1,2,0.4c0.6,0.3,1,0.7,1.4,1.1
			c0.3,0.4,0.5,1,0.6,1.5c0.1,0.6,0.2,1.4,0.2,2.4V108.8z"/>
		<path style="fill: var(--svgtext);" d="M247.9,104.4l3.3,0.6c-0.4,1.3-1.1,2.3-2,3c-0.9,0.7-2,1-3.4,1c-2.2,0-3.7-0.8-4.8-2.3c-0.8-1.3-1.2-2.8-1.2-4.7
			c0-2.3,0.5-4.1,1.6-5.4c1.1-1.3,2.4-1.9,4.1-1.9c1.8,0,3.3,0.7,4.4,2c1.1,1.4,1.6,3.4,1.5,6.2h-8.2c0,1.1,0.3,1.9,0.8,2.5
			c0.5,0.6,1.1,0.9,1.9,0.9c0.5,0,0.9-0.2,1.3-0.5S247.7,105.1,247.9,104.4z M248.1,100.7c0-1.1-0.3-1.9-0.7-2.4s-1-0.8-1.7-0.8
			c-0.7,0-1.3,0.3-1.8,0.9s-0.7,1.4-0.7,2.4H248.1z"/>
	</g>
	<g>
		<path style="fill: var(--svgtext);" d="M26.9,45.7h12.8v5.7H29.2v28.3h4V77H60v2.6h4.2V51.3H53.1v-5.7H66v-4H26.9V45.7z M39.7,55.2c-0.1,0.9-0.2,1.7-0.4,2.6
			c-0.3,1.3-1,2.6-2,3.9c-0.9,1.1-2.3,2.1-4.1,3v-9.5H39.7z M33.2,73.2v-7.6c0.1,0.1,0.2,0.2,0.2,0.2c0.3,0.4,0.7,0.7,1,1.1
			c0.3,0.4,0.5,0.7,0.7,1c2.3-1.1,4.1-2.5,5.3-4.1c1.2-1.6,2-3.2,2.4-5c0.3-1.3,0.5-2.5,0.5-3.8h5.7v6c0,1.4,0.1,2.5,0.4,3.2
			c0.3,0.8,0.8,1.3,1.5,1.6c0.7,0.3,1.8,0.5,3.1,0.5c0.2,0,0.6,0,1.1,0c0.5,0,1,0,1.6,0c0.6,0,1.1,0,1.7,0c0.5,0,0.9,0,1.1,0
			c0.2,0,0.3,0,0.4,0v6.7H33.2z M60,55.2v7.4c0,0,0,0,0,0c-0.1,0-0.4,0.1-0.8,0.1c-0.2,0-0.5,0-0.9,0c-0.4,0-0.9,0-1.4,0
			c-0.5,0-0.9,0-1.3,0s-0.7,0-0.8,0c-0.7,0-1.1-0.1-1.3-0.2c-0.2-0.2-0.3-0.6-0.3-1.3v-5.9H60z M49.1,51.3h-5.6v-5.7h5.6V51.3z"/>
		<path style="fill: var(--svgtext);" d="M108,53c0-0.2,0-0.4,0-0.7s0-0.7,0-1.1h-2.7h-1.2H90.5h-2.2h-1.7c-0.1,1.8-0.3,3.6-0.6,5.6c-0.1,1.1-0.3,2.2-0.4,3.3h-4.5
			v3.8h4c-0.2,1.6-0.4,3.1-0.7,4.6c-0.3,1.8-0.6,3.4-0.9,4.9h2.1h2h15c0,0,0,0.1,0,0.2c-0.2,1-0.5,1.6-0.8,2
			c-0.2,0.3-0.4,0.4-0.7,0.5c-0.2,0.1-0.6,0.1-0.9,0.1c-0.4,0-1.1,0-2,0c-0.9,0-1.9-0.1-2.9-0.2c0.3,0.5,0.6,1,0.8,1.7
			c0.2,0.7,0.3,1.3,0.3,1.8c1.1,0.1,2.1,0.1,3.1,0.1c1,0,1.8,0,2.5-0.1c0.7-0.1,1.3-0.3,1.8-0.5c0.5-0.2,1-0.7,1.5-1.3
			c0.4-0.5,0.7-1.2,1-2.3c0.1-0.5,0.3-1.2,0.4-2h3.3v-3.6H107c0.2-1.6,0.3-3.6,0.5-5.9h3.6V60h-3.4C107.8,57.9,107.9,55.6,108,53z
			 M98.4,60l1.6-1.1c-0.5-0.6-1.2-1.4-2-2.3c-0.7-0.7-1.5-1.3-2.2-1.9h8.3c-0.1,1.9-0.2,3.7-0.2,5.3H98.4z M89.9,56.9
			c0.1-0.7,0.2-1.4,0.2-2.1h4.7l-1.7,1.1c0.9,0.7,1.7,1.5,2.6,2.4c0.7,0.7,1.2,1.3,1.6,1.9h-7.9C89.6,59,89.8,57.9,89.9,56.9z
			 M88.3,68.5c0.2-1.5,0.4-3.1,0.7-4.7h4.9L92,65c0.9,0.8,1.8,1.6,2.8,2.6c0.8,0.8,1.4,1.5,1.8,2.1h-8.5
			C88.2,69.3,88.3,68.9,88.3,68.5z M103.2,69.2c0,0.2,0,0.3-0.1,0.4h-5.4l1.8-1.2c-0.6-0.7-1.3-1.6-2.3-2.5
			c-0.9-0.8-1.7-1.5-2.5-2.2h9C103.5,66,103.4,67.8,103.2,69.2z"/>
		<path style="fill: var(--svgtext);" d="M75.6,67.7c-0.7,1.8-1.5,3.4-2.2,5c-0.7,1.6-1.3,2.9-1.9,4.1l3.6,2.2c0.6-1.4,1.3-2.9,2-4.5c0.7-1.6,1.3-3.3,2-4.9
			c0.6-1.7,1.2-3.3,1.8-4.8l-3.2-2.3C77,64.2,76.3,65.9,75.6,67.7z"/>
		<path style="fill: var(--svgtext);" d="M81.6,53c0.5,0.3,0.9,0.6,1.3,0.9s0.8,0.6,1.1,0.8c1-1.2,2-2.6,2.9-4.2c0.6-1,1.1-2,1.6-3h21.4v-3.7H90.3
			c0.5-1.2,1-2.5,1.4-3.8l-4-1c-0.5,1.7-1.2,3.3-1.9,5c-0.7,1.6-1.6,3.2-2.5,4.6c-0.9,1.4-1.9,2.7-2.9,3.8
			C80.8,52.5,81.2,52.7,81.6,53z"/>
		<path style="fill: var(--svgtext);" d="M75.4,58.3c0.8,0.6,1.5,1.1,2,1.6l2.4-3.2c-0.5-0.5-1.2-1-2-1.5c-0.8-0.5-1.7-1-2.6-1.6c-0.9-0.5-1.8-1-2.7-1.3l-2.3,2.9
			c0.8,0.4,1.7,0.9,2.6,1.5C73.8,57.1,74.6,57.7,75.4,58.3z"/>
		<path style="fill: var(--svgtext);" d="M78.2,45.7c0.9,0.6,1.6,1.1,2.1,1.6l2.5-3.2c-0.6-0.5-1.3-1-2.2-1.5c-0.9-0.5-1.8-1.1-2.8-1.6c-1-0.5-1.9-1-2.8-1.4
			l-2.3,2.8c0.9,0.4,1.8,0.9,2.8,1.5C76.4,44.5,77.3,45.1,78.2,45.7z"/>
		<polygon style="fill: var(--svgtext);" points="151.6,40.6 147.2,40.6 147.2,46 136.7,46 136.7,38.9 132.3,38.9 132.3,46 122.1,46 122.1,40.6 117.9,40.6 
			117.9,49.7 151.6,49.7 		"/>
		<polygon style="fill: var(--svgtext);" points="140.6,63.2 152.2,63.2 152.2,59.6 125.1,59.6 125.1,63.2 136.2,63.2 136.2,67.3 123,67.3 123,71 136.2,71 
			136.2,79.8 140.6,79.8 140.6,71 154.4,71 154.4,67.3 140.6,67.3 		"/>
		<path style="fill: var(--svgtext);" d="M153.8,56.4v-3.7h-31.9H120h-2.3v8.4c0,1.5-0.1,3.2-0.2,5c-0.2,1.8-0.5,3.6-1.1,5.4c-0.5,1.8-1.4,3.4-2.6,4.9
			c0.3,0.1,0.7,0.4,1.1,0.7c0.5,0.3,0.9,0.7,1.3,1c0.4,0.4,0.7,0.7,0.9,1c1-1.3,1.8-2.6,2.4-4.2c0.6-1.5,1.1-3.1,1.4-4.7
			c0.3-1.6,0.5-3.2,0.7-4.8c0.1-1.6,0.2-3,0.2-4.4v-4.8H153.8z"/>
		<path style="fill: var(--svgtext);" d="M189.1,66.7c-0.7-1.2-1.2-2.5-1.7-3.8h11.5v-4h-3.3V45.8h-9.7V39h-4.2v6.9h-8.2v3.9h8.2V54c0,1.5-0.1,3.1-0.2,4.7
			c0,0.1,0,0.1,0,0.2h-10.2v4h9.6c-0.1,0.2-0.1,0.5-0.1,0.7c-0.4,1.6-1,3.2-1.9,4.8c-0.9,1.6-2,3.1-3.5,4.5s-3.4,2.7-5.7,3.8
			c0.3,0.3,0.7,0.6,1.1,1c0.4,0.4,0.7,0.8,1.1,1.2c0.3,0.4,0.6,0.8,0.8,1.1c2.4-1.3,4.4-2.8,6-4.4c1.6-1.6,2.9-3.3,3.9-5.1
			c0.9-1.6,1.5-3.1,2-4.8c0.4,1,0.8,2.1,1.3,3c1.2,2.5,2.7,4.7,4.5,6.6c1.8,1.9,3.9,3.4,6.4,4.5c0.2-0.4,0.5-0.9,0.9-1.4
			c0.3-0.5,0.7-1,1.1-1.4c0.4-0.4,0.7-0.8,1.1-1.1c-2.3-0.9-4.3-2.1-6-3.7C191.8,70.7,190.3,68.9,189.1,66.7z M185.8,54v-4.3h5.6
			v9.2h-5.9C185.8,57.3,185.8,55.6,185.8,54z"/>
		<path style="fill: var(--svgtext);" d="M159.3,51.4c-0.2,1.4-0.5,2.8-0.7,4.1c-0.3,1.3-0.6,2.5-1,3.5l3.2,1.1c0.4-1.1,0.8-2.4,1-3.8s0.5-2.8,0.7-4.3
			c0.2-1.5,0.3-2.8,0.4-4l-3.1-0.4C159.7,48.7,159.5,50,159.3,51.4z"/>
		<path style="fill: var(--svgtext);" d="M169.8,53.2c0.3,1,0.6,1.8,0.8,2.6l3.1-1.5c-0.2-0.7-0.4-1.6-0.8-2.5c-0.4-0.9-0.8-1.9-1.2-2.9c-0.5-1-0.9-1.9-1.3-2.8
			l-2.5,1V39h-4.1v40.8h4.1V48.3c0.3,0.6,0.6,1.3,0.9,1.9C169,51.3,169.4,52.3,169.8,53.2z"/>
		<path style="fill: var(--svgtext);" d="M237.5,45.9l2.5-2.6c-0.4-0.4-1-0.8-1.7-1.3c-0.7-0.5-1.4-0.9-2.2-1.4s-1.5-0.8-2.2-1.1l-2.4,2.2c1,0.6,2.1,1.2,3.3,2
			C235.9,44.6,236.8,45.3,237.5,45.9z"/>
		<path style="fill: var(--svgtext);" d="M241.5,72.2c-0.6-0.4-1.1-0.9-1.5-1.3c-0.1,1.2-0.1,2.2-0.3,2.9s-0.3,1.2-0.5,1.5c-0.2,0.3-0.5,0.4-0.9,0.4
			c-0.9,0-1.6-0.5-2.4-1.4c-0.6-0.8-1.2-1.8-1.7-3.1c0.8-0.6,1.6-1.3,2.3-1.9c2.4-2.1,4.3-4.5,6-7l-3.5-1.6
			c-1.5,2.3-3.3,4.4-5.6,6.4c-0.2,0.1-0.3,0.3-0.5,0.4c-0.3-0.9-0.5-1.9-0.7-2.9c-0.3-1.3-0.5-2.8-0.8-4.3l10.7-2l-0.7-3.7l-10.6,2
			c-0.2-1.6-0.4-3.3-0.5-5l10.5-1.6l-0.7-3.7l-10.1,1.5c-0.1-2.9-0.2-5.9-0.2-8.9H226c0,3.2,0.1,6.4,0.3,9.5l-6.7,1l0.7,3.7l6.3-1
			c0.1,1.8,0.3,3.5,0.5,5.1l-8.3,1.5l0.7,3.7l8.2-1.5c0.3,2.2,0.7,4.2,1.2,6.1c0.3,1,0.5,2,0.8,2.9c-1.1,0.7-2.3,1.4-3.6,2.1
			c-2.8,1.4-5.7,2.6-8.8,3.6c0.5,0.5,1,1,1.5,1.7c0.5,0.6,0.8,1.2,1.1,1.8c3.2-1.1,6.2-2.5,9.1-4.1c0.7-0.4,1.4-0.8,2.1-1.3
			c0,0,0,0,0,0.1c0.9,1.9,1.9,3.4,3.1,4.4c1.2,1,2.5,1.6,4,1.6c1.1,0,2-0.2,2.6-0.6c0.7-0.4,1.2-1,1.6-2c0.4-1,0.7-2.3,0.9-4
			C242.6,72.9,242.1,72.6,241.5,72.2z"/>
		<path style="fill: var(--svgtext);" d="M217.6,69.2c-1.8,0.5-3.6,1-5.4,1.6c-1.8,0.5-3.5,1-5.1,1.5s-3,0.8-4.3,1.1l0.9,4c2.1-0.7,4.4-1.4,6.9-2.2
			c2.5-0.8,5.1-1.6,7.6-2.5L217.6,69.2z"/>
		<path style="fill: var(--svgtext);" d="M207.7,59.8c-0.7,0.9-1.2,1.6-1.6,1.9c-0.7,0.8-1.3,1.5-1.8,2c-0.5,0.5-1.1,0.8-1.6,0.9c0.1,0.3,0.3,0.7,0.5,1.2
			c0.2,0.5,0.3,1,0.5,1.4c0.1,0.5,0.2,0.8,0.3,1.1c0.3-0.1,0.6-0.3,1-0.4c0.4-0.1,1.1-0.3,2-0.6c0.9-0.2,2.2-0.5,3.9-0.9
			c1.7-0.4,3.9-0.8,6.6-1.4c0-0.4,0-1,0-1.7c0-0.7,0.1-1.3,0.1-1.8l-8,1.4c1.1-1.3,2.2-2.7,3.3-4.2c2.1-2.8,4-5.7,5.7-8.6l-3.4-2.2
			c-0.8,1.5-1.6,3-2.5,4.4c-0.1,0.1-0.2,0.3-0.3,0.4l-4.7,0.4c0.5-0.7,1-1.4,1.4-2.1c1-1.6,2-3.3,2.9-5c0.9-1.8,1.8-3.5,2.5-5.2
			l-3.9-1.8c-0.4,1.3-0.9,2.6-1.5,3.9c-0.6,1.3-1.1,2.5-1.7,3.6c-0.6,1.1-1.1,2.1-1.6,2.9c-0.5,0.8-0.8,1.4-1.1,1.7
			c-0.5,0.7-0.9,1.3-1.3,1.8c-0.4,0.5-0.8,0.8-1.3,0.9c0.2,0.4,0.4,0.8,0.5,1.3c0.2,0.5,0.3,1,0.5,1.5c0.2,0.5,0.3,0.8,0.3,1.1
			c0.2-0.1,0.4-0.2,0.8-0.3c0.3-0.1,0.8-0.2,1.5-0.3c0.7-0.1,1.6-0.2,2.7-0.4c0.4-0.1,0.9-0.1,1.4-0.2c0,0,0,0,0,0.1
			C209.2,57.8,208.4,58.9,207.7,59.8z"/>
	</g>
</g>
</svg>
