<svg xmlns="http://www.w3.org/2000/svg" viewBox="0 0 190 150" role="img" aria-label="201路徽标">
  <rect y="25" width="190" height="100" rx="5" ry="5" fill="#e35225"/>
  <path d="M185,28c1.1,0,2,.9,2,2v90c0,1.1-.9,2-2,2H5c-1.1,0-2-.9-2-2V30c0-1.1.9-2,2-2h180M185,25H5c-2.76,0-5,2.24-5,5v90c0,2.76,2.24,5,5,5h180c2.76,0,5-2.24,5-5V30c0-2.76-2.24-5-5-5h0Z" fill="#ffffff"/>
  <text x="95" y="75" text-anchor="middle" dominant-baseline="middle" fill="#ffffff" font-family="Arial, Helvetica, sans-serif" font-size="66" font-weight="700">201</text>
</svg>
